<svg xmlns="http://www.w3.org/2000/svg" width="172.56" height="31.496" viewBox="0 0 172.56 31.496">
  <path id="Caminho_6" data-name="Caminho 6" d="M1019.152,710.681h-13.415a9.083,9.083,0,0,1-9.07-9.075v-22.42h4.262v22.42a4.815,4.815,0,0,0,4.808,4.811h13.415Zm110.178-31.5-11.1,27.14h-1.638l-11.1-27.14h-5.17l12.658,31.5h8.863l12.659-31.5Zm-39.266,0-11.1,27.14h-1.638l-11.1-27.14h-5.17l12.658,31.5h8.863l12.659-31.5Zm63.425,27.223c-5.832,0-9.6-2.94-9.6-7.491v-.483c0-3.348,2.858-4.052,5.255-4.052h15.114c.036.606.036,1.22.036,1.818,0,5.915-4.544,10.208-10.805,10.208m1.026-27.223h-12.542v4.272h11.757c5.111,0,8.9,2.792,10,7.318h-15.907c-5.131,0-8.319,2.634-8.319,6.874v1.026c0,7.068,5.7,12.005,13.869,12.005,9.338,0,15.859-6.227,15.859-15.144v-1.208c0-9.058-5.913-15.144-14.713-15.144m-113.192,4.272c5.832,0,9.6,2.941,9.6,7.492v.483c0,3.348-2.857,4.051-5.255,4.051h-15.114c-.036-.606-.036-1.22-.036-1.817,0-5.915,4.545-10.209,10.806-10.209m.121-4.272c-9.338,0-15.86,6.227-15.86,15.144v1.208c0,9.058,5.912,15.144,14.713,15.144h12.542v-4.273H1041.08c-5.11,0-8.9-2.791-9.995-7.317h15.907c5.131,0,8.319-2.634,8.319-6.875V691.19c0-7.069-5.7-12.005-13.869-12.005" transform="translate(-996.667 -679.185)" fill="#292829"/>
</svg>
